<?xml version="1.0" standalone="no"?>
<!DOCTYPE svg PUBLIC "-//W3C//DTD SVG 20010904//EN"
 "http://www.w3.org/TR/2001/REC-SVG-20010904/DTD/svg10.dtd">
<svg version="1.0" xmlns="http://www.w3.org/2000/svg"
 width="540.000000pt" height="540.000000pt" viewBox="0 0 540.000000 540.000000"
 preserveAspectRatio="xMidYMid meet">
<metadata>
Created by potrace 1.11, written by Peter Selinger 2001-2013
</metadata>
<g transform="translate(0.000000,540.000000) scale(0.100000,-0.100000)"
fill="#000000" stroke="none">
<path d="M3156 4015 c-33 -13 -62 -28 -65 -32 -9 -13 -83 -69 -111 -83 -25
-14 -111 -37 -164 -45 -44 -7 -115 -45 -174 -92 -66 -54 -116 -80 -218 -115
-69 -23 -198 -88 -214 -107 -27 -33 -132 -95 -174 -103 -25 -4 -32 -25 -11
-30 12 -2 4 -12 -26 -35 -31 -24 -53 -33 -81 -33 -43 0 -51 -15 -12 -24 41
-11 91 4 136 40 49 39 88 48 48 11 -23 -20 -71 -44 -125 -62 -19 -6 -19 -7 -3
-16 12 -7 31 -6 55 0 49 14 60 14 45 -1 -7 -7 -41 -15 -77 -19 -47 -5 -75 -14
-103 -33 -20 -15 -59 -43 -86 -61 -26 -19 -42 -36 -35 -36 39 -4 72 3 90 20
24 23 84 41 134 41 l38 0 -25 -22 c-49 -44 -65 -55 -94 -66 -26 -9 -27 -10 -9
-17 11 -4 30 -11 42 -17 12 -6 39 -8 60 -4 l38 6 -43 -20 c-29 -13 -55 -18
-78 -14 -38 6 -46 -9 -13 -27 21 -11 58 -9 109 6 14 4 51 11 83 16 33 5 63 11
68 15 10 6 12 -7 3 -30 -3 -9 -14 -16 -24 -16 -10 0 -23 -7 -30 -15 -7 -8 -16
-15 -21 -15 -4 0 -20 -5 -36 -11 -45 -17 -6 -32 49 -18 24 6 57 12 73 13 64 6
97 20 140 58 25 22 45 36 45 31 0 -5 -5 -14 -11 -20 -6 -6 -16 -22 -23 -34 -6
-13 -25 -33 -42 -44 -17 -11 -29 -25 -27 -31 4 -11 -17 -27 -83 -64 -74 -42
-175 -124 -181 -148 -3 -13 -1 -38 4 -56 5 -17 6 -43 2 -58 -14 -52 -3 -131
26 -195 15 -35 31 -63 36 -63 5 0 6 -6 3 -14 -3 -8 -26 -19 -52 -25 -26 -7
-72 -21 -102 -32 -30 -12 -95 -32 -145 -45 -111 -30 -87 -23 -235 -71 -69 -22
-141 -44 -160 -47 -19 -4 -44 -11 -55 -16 -11 -4 -42 -16 -70 -25 -78 -27
-128 -52 -151 -74 -12 -11 -24 -18 -27 -15 -6 7 -9 -26 -9 -136 -1 -81 2 -114
12 -140 1 -3 3 -9 4 -15 2 -12 23 -58 82 -180 43 -88 66 -125 77 -125 3 0 20
-13 37 -28 30 -28 31 -42 1 -42 -35 0 -324 -136 -341 -161 -3 -4 -23 -16 -46
-28 -22 -12 -49 -29 -60 -39 -10 -10 -35 -29 -54 -42 -19 -13 -46 -35 -60 -47
-14 -13 -28 -23 -32 -23 -4 0 -10 -9 -13 -20 -3 -11 -10 -20 -16 -20 -11 0
-49 -32 -49 -42 0 -14 29 -8 47 10 47 46 232 179 318 227 117 66 234 125 288
145 31 12 57 28 57 35 0 9 8 12 23 9 61 -14 238 9 256 33 12 16 79 43 166 68
50 15 144 42 210 62 257 75 328 94 336 86 4 -4 11 -37 14 -73 11 -104 15 -137
31 -250 5 -42 23 -101 35 -116 12 -15 54 -6 74 16 9 10 18 36 21 58 2 22 13
57 24 77 11 19 20 41 20 49 0 14 51 62 62 58 4 -1 5 4 2 12 -8 22 37 58 66 53
32 -6 90 17 90 36 0 8 15 20 33 27 17 7 46 25 62 40 17 15 62 51 100 80 80 60
161 128 216 182 20 21 42 38 48 38 5 0 16 7 24 15 8 8 27 16 42 19 15 3 32 9
38 14 15 12 117 43 117 35 0 -3 6 -1 13 5 6 6 44 21 82 35 39 14 97 35 130 47
56 21 134 44 180 55 35 8 145 64 145 74 0 5 78 58 173 117 94 59 224 140 288
180 64 40 130 81 147 91 17 10 92 56 167 102 190 120 186 129 -65 130 -96 0
-197 3 -225 5 -27 2 -90 7 -140 11 -49 3 -101 8 -115 10 -14 2 -52 7 -85 10
-33 4 -73 8 -90 10 -16 2 -64 7 -105 10 -41 4 -80 12 -87 17 -7 5 -17 7 -23 3
-6 -4 -28 -8 -48 -10 -20 -1 -82 -21 -137 -43 -55 -23 -111 -43 -125 -45 -14
-3 -36 -10 -50 -15 -46 -20 -305 -100 -343 -107 l-38 -7 13 28 c19 43 61 122
96 181 17 28 28 53 26 56 -2 2 3 20 11 40 8 20 15 38 14 39 0 2 9 27 20 56 22
55 28 133 18 224 l-6 47 76 51 c41 27 80 50 86 51 7 0 19 2 27 4 8 2 27 5 43
8 68 14 85 32 73 82 -3 13 -2 35 4 49 6 17 6 27 -2 32 -7 4 -5 10 6 16 11 6
15 16 10 30 -4 13 1 27 14 41 27 30 14 58 -37 82 -30 13 -38 21 -31 30 6 7 22
10 36 7 24 -4 25 -3 13 17 -8 11 -17 21 -21 21 -22 0 -4 18 21 22 33 5 50 -5
76 -45 32 -49 29 -19 -5 48 -18 36 -39 65 -46 65 -8 0 -14 3 -14 8 0 16 -81
42 -136 44 -29 1 -49 10 -77 35 -68 61 -125 68 -221 28z m-310 -1382 c-14 -75
-11 -73 -66 -55 l-49 15 57 38 c31 21 59 38 61 38 2 1 0 -16 -3 -36z"/>
<path d="M892 1902 c-74 -37 -150 -75 -170 -85 -44 -23 -185 -108 -192 -117
-3 -4 -34 -26 -70 -50 -36 -24 -83 -60 -105 -80 -133 -123 -178 -170 -164
-170 8 0 26 12 40 26 50 54 258 214 359 277 90 57 208 123 400 224 53 28 70
43 50 43 -8 0 -75 -30 -148 -68z"/>
<path d="M950 1881 c-45 -17 -63 -26 -150 -76 -25 -14 -60 -33 -77 -42 -18 -9
-33 -23 -33 -30 0 -9 18 -3 58 18 31 18 64 36 72 40 36 20 170 79 179 79 5 0
12 4 15 9 11 17 -19 18 -64 2z"/>
<path d="M966 1833 c-4 -4 -13 -8 -20 -9 -22 -3 -202 -92 -282 -139 -42 -25
-78 -45 -81 -45 -3 0 -24 -15 -47 -33 -23 -18 -54 -41 -71 -52 -16 -10 -35
-23 -41 -29 -6 -6 -34 -29 -62 -51 -50 -39 -71 -65 -52 -65 5 0 15 6 22 13 34
32 174 136 219 163 10 6 27 18 36 26 10 8 27 18 37 22 19 7 19 6 1 -14 -26
-29 -4 -25 55 10 28 17 57 30 63 30 7 0 17 4 23 9 12 11 172 77 204 85 32 7
66 31 54 38 -17 11 -181 -50 -298 -112 -42 -21 -74 -35 -71 -30 3 5 18 15 33
23 15 8 56 30 92 50 36 19 92 45 125 57 64 24 93 44 77 54 -5 3 -12 2 -16 -1z"/>
<path d="M871 1543 c-69 -37 -120 -68 -114 -70 6 -2 63 20 126 50 63 30 124
58 136 62 24 7 19 25 -7 24 -9 0 -73 -30 -141 -66z"/>
<path d="M970 1531 c-105 -41 -271 -122 -290 -141 -3 -3 -25 -16 -50 -29 -25
-14 -47 -28 -50 -33 -3 -4 -26 -22 -51 -40 -67 -48 -169 -140 -181 -163 -11
-19 -11 -19 18 -1 16 11 40 30 54 44 31 30 154 124 235 178 65 43 117 72 235
127 97 45 142 56 68 17 -98 -52 -63 -54 51 -3 34 15 61 33 61 40 0 11 -5 11
-22 3 -22 -11 -22 -10 -4 4 11 9 23 16 28 16 4 0 8 5 8 10 0 14 -2 13 -110
-29z"/>
<path d="M1155 1362 c-112 -46 -304 -151 -373 -203 -184 -139 -277 -227 -259
-245 2 -2 15 5 28 17 13 11 41 35 62 52 21 18 48 42 60 54 37 37 210 156 277
190 25 13 74 39 110 58 35 19 69 35 75 35 13 1 71 48 65 54 -3 2 -23 -3 -45
-12z"/>
<path d="M1044 1260 c-76 -39 -143 -75 -148 -80 -18 -18 3 -23 29 -6 14 9 25
14 25 11 0 -4 12 2 28 13 40 28 178 91 193 88 9 -2 39 25 39 35 0 18 -30 7
-166 -61z"/>
</g>
</svg>
